<mxfile host="Electron" modified="2023-09-01T13:54:53.503Z" agent="Mozilla/5.0 (Windows NT 10.0; Win64; x64) AppleWebKit/537.36 (KHTML, like Gecko) draw.io/21.2.1 Chrome/112.0.5615.87 Electron/24.1.2 Safari/537.36" etag="fYCX-rqJ-1pmlwuk0UCD" version="21.2.1" type="device">
  <diagram name="Page-1" id="52a04d89-c75d-2922-d76d-85b35f80e030">
    <mxGraphModel dx="1418" dy="820" grid="1" gridSize="10" guides="1" tooltips="1" connect="1" arrows="1" fold="1" page="1" pageScale="1" pageWidth="827" pageHeight="1169" background="none" math="0" shadow="0">
      <root>
        <mxCell id="0" />
        <mxCell id="1" parent="0" />
        <mxCell id="6jifp7Oea2Hbc_1OkseK-1" value="&lt;font style=&quot;font-size: 20px;&quot;&gt;Start&lt;/font&gt;" style="rounded=1;whiteSpace=wrap;html=1;" parent="1" vertex="1">
          <mxGeometry x="55" y="20" width="120" height="40" as="geometry" />
        </mxCell>
        <mxCell id="6jifp7Oea2Hbc_1OkseK-5" value="" style="edgeStyle=orthogonalEdgeStyle;rounded=0;orthogonalLoop=1;jettySize=auto;html=1;fontSize=20;" parent="1" source="6jifp7Oea2Hbc_1OkseK-2" target="6jifp7Oea2Hbc_1OkseK-4" edge="1">
          <mxGeometry relative="1" as="geometry" />
        </mxCell>
        <mxCell id="6jifp7Oea2Hbc_1OkseK-2" value="Create new workspace" style="rounded=0;whiteSpace=wrap;html=1;fontSize=20;" parent="1" vertex="1">
          <mxGeometry x="55" y="110" width="120" height="60" as="geometry" />
        </mxCell>
        <mxCell id="6jifp7Oea2Hbc_1OkseK-3" value="" style="endArrow=classic;html=1;rounded=0;fontSize=20;exitX=0.5;exitY=1;exitDx=0;exitDy=0;entryX=0.5;entryY=0;entryDx=0;entryDy=0;" parent="1" source="6jifp7Oea2Hbc_1OkseK-1" target="6jifp7Oea2Hbc_1OkseK-2" edge="1">
          <mxGeometry width="50" height="50" relative="1" as="geometry">
            <mxPoint x="415" y="450" as="sourcePoint" />
            <mxPoint x="465" y="400" as="targetPoint" />
          </mxGeometry>
        </mxCell>
        <mxCell id="6jifp7Oea2Hbc_1OkseK-7" style="edgeStyle=orthogonalEdgeStyle;rounded=0;orthogonalLoop=1;jettySize=auto;html=1;entryX=0;entryY=0.5;entryDx=0;entryDy=0;fontSize=20;" parent="1" source="6jifp7Oea2Hbc_1OkseK-4" target="6jifp7Oea2Hbc_1OkseK-6" edge="1">
          <mxGeometry relative="1" as="geometry" />
        </mxCell>
        <mxCell id="6jifp7Oea2Hbc_1OkseK-14" value="" style="edgeStyle=orthogonalEdgeStyle;rounded=0;orthogonalLoop=1;jettySize=auto;html=1;fontSize=15;" parent="1" source="6jifp7Oea2Hbc_1OkseK-4" target="6jifp7Oea2Hbc_1OkseK-13" edge="1">
          <mxGeometry relative="1" as="geometry" />
        </mxCell>
        <mxCell id="6jifp7Oea2Hbc_1OkseK-4" value="Successful" style="rhombus;whiteSpace=wrap;html=1;fontSize=20;" parent="1" vertex="1">
          <mxGeometry x="20" y="220" width="190" height="80" as="geometry" />
        </mxCell>
        <mxCell id="6jifp7Oea2Hbc_1OkseK-6" value="Stop" style="rounded=1;whiteSpace=wrap;html=1;fontSize=20;" parent="1" vertex="1">
          <mxGeometry x="285" y="230" width="90" height="60" as="geometry" />
        </mxCell>
        <mxCell id="6jifp7Oea2Hbc_1OkseK-8" value="N" style="text;html=1;strokeColor=none;fillColor=none;align=center;verticalAlign=middle;whiteSpace=wrap;rounded=0;fontSize=20;" parent="1" vertex="1">
          <mxGeometry x="215" y="230" width="60" height="30" as="geometry" />
        </mxCell>
        <mxCell id="6jifp7Oea2Hbc_1OkseK-10" value="&lt;font style=&quot;font-size: 15px;&quot;&gt;Your account may not have permissions to create workspaces.&amp;nbsp; Confirm with the Power BI Admin&lt;/font&gt;" style="text;html=1;strokeColor=none;fillColor=none;align=center;verticalAlign=middle;whiteSpace=wrap;rounded=0;fontSize=20;" parent="1" vertex="1">
          <mxGeometry x="390" y="245" width="350" height="30" as="geometry" />
        </mxCell>
        <mxCell id="6jifp7Oea2Hbc_1OkseK-11" style="edgeStyle=orthogonalEdgeStyle;rounded=0;orthogonalLoop=1;jettySize=auto;html=1;exitX=0.5;exitY=1;exitDx=0;exitDy=0;fontSize=15;" parent="1" source="6jifp7Oea2Hbc_1OkseK-10" target="6jifp7Oea2Hbc_1OkseK-10" edge="1">
          <mxGeometry relative="1" as="geometry" />
        </mxCell>
        <mxCell id="6jifp7Oea2Hbc_1OkseK-17" value="" style="edgeStyle=orthogonalEdgeStyle;rounded=0;orthogonalLoop=1;jettySize=auto;html=1;fontSize=15;" parent="1" source="6jifp7Oea2Hbc_1OkseK-13" target="6jifp7Oea2Hbc_1OkseK-16" edge="1">
          <mxGeometry relative="1" as="geometry" />
        </mxCell>
        <mxCell id="6jifp7Oea2Hbc_1OkseK-13" value="Enter the name of workspace" style="whiteSpace=wrap;html=1;fontSize=15;" parent="1" vertex="1">
          <mxGeometry x="37.5" y="330" width="155" height="60" as="geometry" />
        </mxCell>
        <mxCell id="6jifp7Oea2Hbc_1OkseK-20" value="" style="edgeStyle=orthogonalEdgeStyle;rounded=0;orthogonalLoop=1;jettySize=auto;html=1;fontSize=15;" parent="1" source="6jifp7Oea2Hbc_1OkseK-16" target="6jifp7Oea2Hbc_1OkseK-19" edge="1">
          <mxGeometry relative="1" as="geometry" />
        </mxCell>
        <mxCell id="6jifp7Oea2Hbc_1OkseK-16" value="Add description" style="whiteSpace=wrap;html=1;fontSize=15;" parent="1" vertex="1">
          <mxGeometry x="55" y="430" width="120" height="40" as="geometry" />
        </mxCell>
        <mxCell id="6jifp7Oea2Hbc_1OkseK-22" value="" style="edgeStyle=orthogonalEdgeStyle;rounded=0;orthogonalLoop=1;jettySize=auto;html=1;fontSize=15;" parent="1" source="6jifp7Oea2Hbc_1OkseK-19" target="6jifp7Oea2Hbc_1OkseK-21" edge="1">
          <mxGeometry relative="1" as="geometry" />
        </mxCell>
        <mxCell id="6jifp7Oea2Hbc_1OkseK-26" value="" style="edgeStyle=orthogonalEdgeStyle;rounded=0;orthogonalLoop=1;jettySize=auto;html=1;fontSize=9;" parent="1" source="6jifp7Oea2Hbc_1OkseK-19" target="6jifp7Oea2Hbc_1OkseK-27" edge="1">
          <mxGeometry relative="1" as="geometry">
            <mxPoint x="113.79999999999995" y="680" as="targetPoint" />
          </mxGeometry>
        </mxCell>
        <mxCell id="6jifp7Oea2Hbc_1OkseK-19" value="Is contact list only workpace admins?&amp;nbsp;" style="rhombus;fontSize=15;horizontal=1;whiteSpace=wrap;html=1;spacingLeft=20;spacingRight=20;spacingBottom=10;spacingTop=10;" parent="1" vertex="1">
          <mxGeometry x="27.5" y="500" width="172.5" height="130" as="geometry" />
        </mxCell>
        <mxCell id="6jifp7Oea2Hbc_1OkseK-21" value="Add Group (or user) to contact list" style="whiteSpace=wrap;html=1;fontSize=15;spacingLeft=20;spacingRight=20;spacingBottom=10;" parent="1" vertex="1">
          <mxGeometry x="340" y="527.5" width="120" height="75" as="geometry" />
        </mxCell>
        <UserObject label="&lt;font style=&quot;font-size: 9px;&quot;&gt;https://learn.microsoft.com/en-us/power-bi/collaborate-share/service-create-the-new-workspaces&lt;/font&gt;" link="https://learn.microsoft.com/en-us/power-bi/collaborate-share/service-create-the-new-workspaces" id="6jifp7Oea2Hbc_1OkseK-23">
          <mxCell style="text;whiteSpace=wrap;html=1;fontSize=15;" parent="1" vertex="1">
            <mxGeometry x="310" y="15" width="455" height="35" as="geometry" />
          </mxCell>
        </UserObject>
        <mxCell id="6jifp7Oea2Hbc_1OkseK-24" value="N" style="text;html=1;strokeColor=none;fillColor=none;align=center;verticalAlign=middle;whiteSpace=wrap;rounded=0;fontSize=20;" parent="1" vertex="1">
          <mxGeometry x="240" y="530" width="60" height="30" as="geometry" />
        </mxCell>
        <mxCell id="6jifp7Oea2Hbc_1OkseK-29" value="" style="edgeStyle=orthogonalEdgeStyle;rounded=0;orthogonalLoop=1;jettySize=auto;html=1;fontSize=9;" parent="1" source="6jifp7Oea2Hbc_1OkseK-27" target="6jifp7Oea2Hbc_1OkseK-28" edge="1">
          <mxGeometry relative="1" as="geometry" />
        </mxCell>
        <mxCell id="StZpnB7S_fQV0d-tLkyQ-2" style="edgeStyle=orthogonalEdgeStyle;rounded=0;orthogonalLoop=1;jettySize=auto;html=1;entryX=0.5;entryY=0;entryDx=0;entryDy=0;fontSize=15;" parent="1" source="6jifp7Oea2Hbc_1OkseK-27" target="StZpnB7S_fQV0d-tLkyQ-1" edge="1">
          <mxGeometry relative="1" as="geometry" />
        </mxCell>
        <mxCell id="6jifp7Oea2Hbc_1OkseK-27" value="&lt;span style=&quot;font-size: 15px;&quot;&gt;Licence Mode&lt;br&gt;&amp;nbsp;= Pro ?&lt;/span&gt;" style="rhombus;whiteSpace=wrap;html=1;fontSize=9;spacingTop=10;spacingLeft=10;spacingBottom=10;spacingRight=10;" parent="1" vertex="1">
          <mxGeometry x="28.75" y="660" width="170" height="130" as="geometry" />
        </mxCell>
        <mxCell id="6jifp7Oea2Hbc_1OkseK-28" value="Add the workspace to the appropriate capacity or licence" style="whiteSpace=wrap;html=1;fontSize=15;spacingTop=10;spacingLeft=10;spacingBottom=10;spacingRight=10;" parent="1" vertex="1">
          <mxGeometry x="340" y="690" width="170" height="69" as="geometry" />
        </mxCell>
        <mxCell id="6jifp7Oea2Hbc_1OkseK-30" value="N" style="text;html=1;strokeColor=none;fillColor=none;align=center;verticalAlign=middle;whiteSpace=wrap;rounded=0;fontSize=20;" parent="1" vertex="1">
          <mxGeometry x="240" y="695" width="60" height="30" as="geometry" />
        </mxCell>
        <mxCell id="StZpnB7S_fQV0d-tLkyQ-5" style="edgeStyle=orthogonalEdgeStyle;rounded=0;orthogonalLoop=1;jettySize=auto;html=1;entryX=0;entryY=0.5;entryDx=0;entryDy=0;fontSize=15;" parent="1" source="StZpnB7S_fQV0d-tLkyQ-1" target="StZpnB7S_fQV0d-tLkyQ-4" edge="1">
          <mxGeometry relative="1" as="geometry" />
        </mxCell>
        <mxCell id="StZpnB7S_fQV0d-tLkyQ-7" style="edgeStyle=orthogonalEdgeStyle;rounded=0;orthogonalLoop=1;jettySize=auto;html=1;entryX=0.5;entryY=0;entryDx=0;entryDy=0;fontSize=15;" parent="1" source="StZpnB7S_fQV0d-tLkyQ-1" target="StZpnB7S_fQV0d-tLkyQ-6" edge="1">
          <mxGeometry relative="1" as="geometry" />
        </mxCell>
        <mxCell id="StZpnB7S_fQV0d-tLkyQ-1" value="&lt;span style=&quot;font-size: 15px;&quot;&gt;Do you have the Admin User Group name?&lt;/span&gt;" style="rhombus;whiteSpace=wrap;html=1;fontSize=9;spacingTop=10;spacingLeft=10;spacingBottom=10;spacingRight=10;" parent="1" vertex="1">
          <mxGeometry x="27.5" y="850" width="172" height="130" as="geometry" />
        </mxCell>
        <mxCell id="StZpnB7S_fQV0d-tLkyQ-17" style="edgeStyle=orthogonalEdgeStyle;rounded=0;orthogonalLoop=1;jettySize=auto;html=1;entryX=0;entryY=0.5;entryDx=0;entryDy=0;fontSize=15;" parent="1" source="StZpnB7S_fQV0d-tLkyQ-4" target="StZpnB7S_fQV0d-tLkyQ-15" edge="1">
          <mxGeometry relative="1" as="geometry" />
        </mxCell>
        <mxCell id="StZpnB7S_fQV0d-tLkyQ-4" value="Add the Admin User Group to the role" style="whiteSpace=wrap;html=1;fontSize=15;spacingTop=10;spacingLeft=10;spacingBottom=10;spacingRight=10;" parent="1" vertex="1">
          <mxGeometry x="329" y="880.5" width="170" height="69" as="geometry" />
        </mxCell>
        <mxCell id="StZpnB7S_fQV0d-tLkyQ-10" style="edgeStyle=orthogonalEdgeStyle;rounded=0;orthogonalLoop=1;jettySize=auto;html=1;entryX=0.5;entryY=0;entryDx=0;entryDy=0;fontSize=15;" parent="1" source="StZpnB7S_fQV0d-tLkyQ-6" target="StZpnB7S_fQV0d-tLkyQ-9" edge="1">
          <mxGeometry relative="1" as="geometry" />
        </mxCell>
        <mxCell id="StZpnB7S_fQV0d-tLkyQ-11" style="edgeStyle=orthogonalEdgeStyle;rounded=0;orthogonalLoop=1;jettySize=auto;html=1;fontSize=15;entryX=0;entryY=0.5;entryDx=0;entryDy=0;" parent="1" source="StZpnB7S_fQV0d-tLkyQ-6" target="StZpnB7S_fQV0d-tLkyQ-8" edge="1">
          <mxGeometry relative="1" as="geometry">
            <mxPoint x="320" y="1085" as="targetPoint" />
          </mxGeometry>
        </mxCell>
        <mxCell id="StZpnB7S_fQV0d-tLkyQ-6" value="&lt;span style=&quot;font-size: 15px;&quot;&gt;Do you have the name of the workspace?&lt;/span&gt;" style="rhombus;whiteSpace=wrap;html=1;fontSize=9;spacingTop=10;spacingLeft=10;spacingBottom=10;spacingRight=10;" parent="1" vertex="1">
          <mxGeometry x="29" y="1020" width="169" height="130" as="geometry" />
        </mxCell>
        <mxCell id="StZpnB7S_fQV0d-tLkyQ-13" style="edgeStyle=orthogonalEdgeStyle;rounded=0;orthogonalLoop=1;jettySize=auto;html=1;entryX=0;entryY=0.5;entryDx=0;entryDy=0;fontSize=15;" parent="1" source="StZpnB7S_fQV0d-tLkyQ-8" target="StZpnB7S_fQV0d-tLkyQ-12" edge="1">
          <mxGeometry relative="1" as="geometry" />
        </mxCell>
        <mxCell id="StZpnB7S_fQV0d-tLkyQ-19" style="edgeStyle=orthogonalEdgeStyle;rounded=0;orthogonalLoop=1;jettySize=auto;html=1;fontSize=15;" parent="1" source="StZpnB7S_fQV0d-tLkyQ-8" edge="1">
          <mxGeometry relative="1" as="geometry">
            <mxPoint x="120" y="1190" as="targetPoint" />
            <Array as="points">
              <mxPoint x="400" y="1190" />
            </Array>
          </mxGeometry>
        </mxCell>
        <mxCell id="StZpnB7S_fQV0d-tLkyQ-8" value="&lt;span style=&quot;font-size: 15px;&quot;&gt;Does it fit with agreed naming convention&lt;/span&gt;" style="rhombus;whiteSpace=wrap;html=1;fontSize=9;spacingTop=10;spacingLeft=10;spacingBottom=10;spacingRight=10;" parent="1" vertex="1">
          <mxGeometry x="324.5" y="1020" width="151" height="130" as="geometry" />
        </mxCell>
        <mxCell id="StZpnB7S_fQV0d-tLkyQ-9" value="&lt;span style=&quot;font-size: 15px;&quot;&gt;Do you have a list of the groups for the roles?&lt;/span&gt;" style="rhombus;whiteSpace=wrap;html=1;fontSize=9;spacingTop=10;spacingLeft=10;spacingBottom=10;spacingRight=10;" parent="1" vertex="1">
          <mxGeometry x="7.5" y="1220" width="212.5" height="140" as="geometry" />
        </mxCell>
        <mxCell id="StZpnB7S_fQV0d-tLkyQ-12" value="Stop" style="rounded=1;whiteSpace=wrap;html=1;fontSize=15;" parent="1" vertex="1">
          <mxGeometry x="610" y="1055" width="120" height="60" as="geometry" />
        </mxCell>
        <mxCell id="StZpnB7S_fQV0d-tLkyQ-14" value="N" style="text;html=1;strokeColor=none;fillColor=none;align=center;verticalAlign=middle;whiteSpace=wrap;rounded=0;fontSize=20;" parent="1" vertex="1">
          <mxGeometry x="510" y="1055" width="60" height="30" as="geometry" />
        </mxCell>
        <mxCell id="StZpnB7S_fQV0d-tLkyQ-15" value="Stop" style="rounded=1;whiteSpace=wrap;html=1;fontSize=15;" parent="1" vertex="1">
          <mxGeometry x="610" y="885" width="120" height="60" as="geometry" />
        </mxCell>
        <mxCell id="StZpnB7S_fQV0d-tLkyQ-16" value="N" style="text;html=1;strokeColor=none;fillColor=none;align=center;verticalAlign=middle;whiteSpace=wrap;rounded=0;fontSize=20;" parent="1" vertex="1">
          <mxGeometry x="520" y="880.5" width="60" height="30" as="geometry" />
        </mxCell>
      </root>
    </mxGraphModel>
  </diagram>
</mxfile>
